# xmcd
# 
# Track frame offsets:
#     150
#     46251
#     107793
#     173020
#     221813
#     282166
# 
# Disc length: 4178
# 
# Revision: 0
# Processed by: cddbd v1.5.2PL0 Copyright (c) Steve Scherf et al.
# Submitted via: fre:ac v1.0.17
# 
DISCID=52105006
DTITLE=Dead and Company - 2016.07.16 Boston, MA set 2a
DYEAR=2016
DGENRE=
TTITLE0=Goin' Down The Road Feelin' Bad  (Boston MA 7.16.16)
TTITLE1=Playin' In The Band (Boston MA 7.16.16)
TTITLE2=Estimated Prophet (Boston MA 7.16.16)
TTITLE3=He's Gone (Boston MA 7.16.16)
TTITLE4=Sugaree (Boston MA 7.16.16)
TTITLE5=Fire on the Mountain (Boston MA 7.16.16)
EXTD=
EXTT0=
EXTT1=
EXTT2=
EXTT3=
EXTT4=
EXTT5=
PLAYORDER=
